{"title":"Dawn Of The Planet Of The Apes 2014 720p TS HC ENG XviD-INFERNO","uid":11194549,"size":2437523178,"categoryP":"video","categoryS":"movies","magnet":"?xt=urn:btih:efce8383f88e802536e4fdb0d16f06355e37bbec&amp;dn=Dawn+Of+The+Planet+Of+The+Apes+2014+720p+TS+HC+ENG+XviD-INFERNO&amp;tr=udp%3A%2F%2Ftracker.openbittorrent.com%3A80&amp;tr=udp%3A%2F%2Fopen.demonii.com%3A1337&amp;tr=udp%3A%2F%2Ftracker.coppersurfer.tk%3A6969&amp;tr=udp%3A%2F%2Fexodus.desync.com%3A6969","seeders":4,"leechers":0,"uploader":"jacks66","files":-1,"time":1413062656,"description":"Dawn Of The Planet Of The Apes 2014 720p TS HC ENG XviD-INFERNO\n\n\n &lt;a href=&quot;\nhttp://www.imdb.com/title/tt2103281/&quot; rel=&quot;nofollow&quot; target=&quot;_NEW&quot;&gt;\nhttp://www.imdb.com/title/tt2103281/&lt;/a&gt;\n\n\nIn the wake of a disaster that changed the world, the growing and genetically evolving apes find themselves at a critical point with the human race.\n\n\nFormat                                   : AVI\nFormat/Info                              : Audio Video Interleave\nFormat profile                           : OpenDML\nFile size                                : 2.23 GiB\nDuration                                 : 1h 59mn\nOverall bit rate                         : 2 671 Kbps\nWriting library                          : VirtualDub build 35491/release\n\nVideo\nID                                       : 0\nFormat                                   : MPEG-4 Visual\nFormat profile                           : Advanced Simple@L5\nFormat settings, BVOP                    : 2\nFormat settings, QPel                    : No\nFormat settings, GMC                     : No warppoints\nFormat settings, Matrix                  : Default (H.263)\nMuxing mode                              : Packed bitstream\nCodec ID                                 : XVID\nCodec ID/Hint                            : XviD\nDuration                                 : 1h 59mn\nBit rate                                 : 2 499 Kbps\nWidth                                    : 1 280 pixels\nHeight                                   : 630 pixels\nDisplay aspect ratio                     : 2.032\nFrame rate                               : 25.000 fps\nColor space                              : YUV\nChroma subsampling                       : 4:2:0\nBit depth                                : 8 bits\nScan type                                : Progressive\nCompression mode                         : Lossy\nBits/(Pixel*Frame)                       : 0.124\nStream size                              : 2.09 GiB (94%)\nWriting library                          : XviD 64\n\nAudio\nID                                       : 1\nFormat                                   : MPEG Audio\nFormat version                           : Version 1\nFormat profile                           : Layer 3\nMode                                     : Joint stereo\nCodec ID                                 : 55\nCodec ID/Hint                            : MP3\nDuration                                 : 1h 59mn\nBit rate mode                            : Constant\nBit rate                                 : 160 Kbps\nChannel count                            : 2 channels\nSampling rate                            : 44.1 KHz\nCompression mode                         : Lossy\nStream size                              : 137 MiB (6%)\nAlignment                                : Split accross interleaves\nInterleave, duration                     : 40 ms (1.00 video frame)\nInterleave, preload duration             : 500 ms\n\nWorkdone:\nVideo source was really good for a cam, We first cropped off bottom line of foreign subs. Then fix the perspective, adjusted levels, MSU Denoiser, Saturation, and added English subs.\n\nAudio:\nClean the noise out and added a few enhancements\n\n\nscreens:\n &lt;a href=&quot;\nhttp://imgsleek.com/img-543982127a727.html&quot; rel=&quot;nofollow&quot; target=&quot;_NEW&quot;&gt;\nhttp://imgsleek.com/img-543982127a727.html&lt;/a&gt;\n &lt;a href=&quot;\nhttp://imgsleek.com/img-5439821298f5f.html&quot; rel=&quot;nofollow&quot; target=&quot;_NEW&quot;&gt;\nhttp://imgsleek.com/img-5439821298f5f.html&lt;/a&gt;\n &lt;a href=&quot;\nhttp://imgsleek.com/img-54398212ae83d.html&quot; rel=&quot;nofollow&quot; target=&quot;_NEW&quot;&gt;\nhttp://imgsleek.com/img-54398212ae83d.html&lt;/a&gt;\n &lt;a href=&quot;\nhttp://imgsleek.com/img-54398212c462d.html&quot; rel=&quot;nofollow&quot; target=&quot;_NEW&quot;&gt;\nhttp://imgsleek.com/img-54398212c462d.html&lt;/a&gt;\n &lt;a href=&quot;\nhttp://imgsleek.com/img-54398212d9f8a.html&quot; rel=&quot;nofollow&quot; target=&quot;_NEW&quot;&gt;\nhttp://imgsleek.com/img-54398212d9f8a.html&lt;/a&gt;\n &lt;a href=&quot;\nhttp://imgsleek.com/img-54398212f07f5.html&quot; rel=&quot;nofollow&quot; target=&quot;_NEW&quot;&gt;\nhttp://imgsleek.com/img-54398212f07f5.html&lt;/a&gt;\n &lt;a href=&quot;\nhttp://imgsleek.com/img-54398213110e0.html&quot; rel=&quot;nofollow&quot; target=&quot;_NEW&quot;&gt;\nhttp://imgsleek.com/img-54398213110e0.html&lt;/a&gt;\n &lt;a href=&quot;\nhttp://imgsleek.com/img-5439821326c1b.html&quot; rel=&quot;nofollow&quot; target=&quot;_NEW&quot;&gt;\nhttp://imgsleek.com/img-5439821326c1b.html&lt;/a&gt;\n","torrent":{"xt":"urn:btih:efce8383f88e802536e4fdb0d16f06355e37bbec","amp;dn":"Dawn+Of+The+Planet+Of+The+Apes+2014+720p+TS+HC+ENG+XviD-INFERNO","amp;tr":["udp%3A%2F%2Ftracker.openbittorrent.com%3A80","udp%3A%2F%2Fopen.demonii.com%3A1337","udp%3A%2F%2Ftracker.coppersurfer.tk%3A6969","udp%3A%2F%2Fexodus.desync.com%3A6969"],"infoHash":"efce8383f88e802536e4fdb0d16f06355e37bbec","infoHashBuffer":{"type":"Buffer","data":[239,206,131,131,248,142,128,37,54,228,253,176,209,111,6,53,94,55,187,236]},"announce":[],"urlList":[]}}